<svg viewBox="0 0 128 128" xmlns="http://www.w3.org/2000/svg" xmlns:xlink="http://www.w3.org/1999/xlink"><style>:root&gt;svg{display:none}:root&gt;svg:target{display:block}</style><svg viewBox="0 0 128 128" id="key" xmlns="http://www.w3.org/2000/svg"><path d="M116 8a4 4 0 0 1 2.828 6.828l-4.484 4.484L112 21.656V40H96v16H80v16H69.414l1.941 9.586C71.781 83.703 72 85.859 72 88c0 17.648-14.355 32-32 32S8 105.648 8 88s14.355-32 32-32c4.957 0 9.891 1.266 14.664 3.758l5.207 2.719 4.152-4.156 49.148-49.148A4.001 4.001 0 0 1 116 8m-76 96c8.824 0 16-7.18 16-16s-7.176-16-16-16-16 7.18-16 16 7.176 16 16 16M116 0c-3.07 0-6.141 1.172-8.484 3.516L58.367 52.664C52.844 49.781 46.66 48 40 48 17.91 48 0 65.906 0 88s17.91 40 40 40 40-17.906 40-40c0-2.742-.281-5.414-.805-8H88V64h16V48h16V24.969l4.484-4.484c4.688-4.688 4.688-12.281 0-16.969A11.959 11.959 0 0 0 116 0zM40 96c-4.418 0-8-3.578-8-8s3.582-8 8-8 8 3.578 8 8-3.582 8-8 8z" fill="#ccd3d3"/></svg><svg viewBox="0 0 24 24" id="mail" xmlns="http://www.w3.org/2000/svg"><path fill="none" d="M0 0h24v24H0z"/><path d="M20 4H4c-1.1 0-1.99.9-1.99 2L2 18c0 1.1.9 2 2 2h16c1.1 0 2-.9 2-2V6c0-1.1-.9-2-2-2zm0 14H4V8l8 5 8-5v10zm-8-7L4 6h16l-8 5z" fill="#ccd3d3"/></svg><svg viewBox="0 0 224 224" id="person" xmlns="http://www.w3.org/2000/svg"><g fill="none" stroke-miterlimit="10" font-family="none" font-weight="none" font-size="none" text-anchor="none" style="mix-blend-mode:normal"><path d="M0 224V0h224v224z"/><path d="M112 28c-26.988 0-49 22.012-49 49 0 16.762 8.531 31.637 21.438 40.469C59.39 128.133 42 153.016 42 182h14c0-31.254 24.746-56 56-56s56 24.746 56 56h14c0-28.984-17.39-53.867-42.438-64.531C152.47 108.637 161 93.762 161 77c0-26.988-22.012-49-49-49zm0 14c19.414 0 35 15.586 35 35s-15.586 35-35 35-35-15.586-35-35 15.586-35 35-35z" fill="#ccd3d3"/></g></svg></svg>